{"title":"Flash Gordon's Trip to Mars (1938)  DVDrip XviD.ita.en","uid":11755313,"size":4802376347,"categoryP":"video","categoryS":"movies","magnet":"?xt=urn:btih:755b6fe86e16558ce0b65ff68f0d51c14348bc0c&amp;dn=Flash+Gordon%27s+Trip+to+Mars+%281938%29++DVDrip+XviD.ita.en&amp;tr=udp%3A%2F%2Ftracker.openbittorrent.com%3A80&amp;tr=udp%3A%2F%2Fopen.demonii.com%3A1337&amp;tr=udp%3A%2F%2Ftracker.coppersurfer.tk%3A6969&amp;tr=udp%3A%2F%2Fexodus.desync.com%3A6969","seeders":9,"leechers":4,"uploader":"robbyrs4","files":45,"time":1426355578,"description":"Flash Gordon's Trip to Mars (1938)  S02e01-15 DVDrip XviD.ita.eng Ac3.sub.ita.MIRCrew\n\n\n[center]\n\nGrazie a nurserycrime55 per i dvd\n\n[color=red][b][img]http://s19.postimg.org/rr1b4yhxv/banner_mircrew_2015.png[/img]\n\n[u]NO FOUND ONLY ORIGINAL RELEASE[/u]\n\nFlash Gordon - Spaceship to the Unknown (1936) \n\n[URL=http://www.imdb.com/title/tt0030138/][IMG]http://www.userlogos.org/files/logos/Sucka/imdb_new.png[/IMG][/URL]  \n\n[img]http://s19.postimg.org/ei87bb0wj/image.jpg[/img]\n\n*****************************************************************************\n\nA seguire tutta la saga\n\n\n\nFlash Gordon Conquers the Universe (1940) 01-12 (1940)  ita.eng.sub.ita.MIRCrew\n\n*******************************************************************************\n\nin questa release:\n\n\n    &quot;New Worlds to Conquer&quot;\n    &quot;The Living Dead&quot;\n    &quot;Queen of Magic&quot;\n    &quot;Ancient Enemies&quot;\n    &quot;The Boomerang&quot;\n    &quot;Tree-men of Mars&quot;\n    &quot;The Prisoner of Mongo&quot;\n    &quot;The Black Sapphire of Kalu&quot;\n    &quot;Symbol of Death&quot;\n    &quot;Incense of Forgetfulness&quot;\n    &quot;Human Bait&quot;\n    &quot;Ming the Merciless&quot;\n    &quot;The Miracle of Magic&quot;\n    &quot;A Beast at Bay&quot;\n    &quot;An Eye for an Eye&quot;\n\n  \n[img]http://i752.photobucket.com/albums/xx170/robbyrs/1scheda.gif[/img]\n\nTitolo originale \tFlash Gordon's Trip to Mars\nLingua originale \tinglese\nPaese di produzione \tUSA\nAnno \t1938\nDurata \t299 min (15 episodi)\nColore \tB/N\nAudio \tmono\nRapporto \t1,37:1\nGenere \tavventura\nRegia \tFord Beebe e Ray Taylor\nSoggetto \tAlex Raymond\nCasa di produzione \tUniversal Pictures\n\n[img]http://i752.photobucket.com/albums/xx170/robbyrs/1cast-1.gif[/img]\n\nBuster Crabbe\nJean Rogers\nCharles B. Middleton\nPriscilla Lawson\nFrank Shannon\n\n\n[img]http://i752.photobucket.com/albums/xx170/robbyrs/1trama.gif[/img]. \n\nQuesto serial in pratica costituiva un film esteso ed era costituito da 15 episodi (di circa 20 minuti), ognuno dei quali veniva proiettato per una settimana nello stesso cinema. La conclusione di ogni episodio era caratterizzata dal cliffhanger, ovvero dal finale aperto, in sospeso, questo ovviamente per invitare il pubblico ad andare al cinema anche al settimana successiva.......................\n\n[img]http://i752.photobucket.com/albums/xx170/robbyrs/1storyline.gif[/img]\n\nFlash, Dale, and Dr. Zarkov return from their former space adventures only to find that their enemy, Ming the Merciless of planet Mongo, has a new weapon: a deadly ray that crosses space to wreak havoc on earth. Earth's only hope is for our heroes to take off again and stop the ray at its source on Mars, where they (and a stowaway) must battle Ming's ally, Queen Azura......\n &lt;a href=&quot;\nhttp://s19.postimg.org/nreyz5z6b/vlcsnap_2015_03_14_17h37m06s180.png[/img]&quot; rel=&quot;nofollow&quot; target=&quot;_NEW&quot;&gt;\nhttp://s19.postimg.org/nreyz5z6b/vlcsnap_2015_03_14_17h37m06s180.png[/img]&lt;/a&gt;\n &lt;a href=&quot;\nhttp://s19.postimg.org/3y2v6glsj/vlcsnap_2015_03_14_17h37m16s53.png[/img]&quot; rel=&quot;nofollow&quot; target=&quot;_NEW&quot;&gt;\nhttp://s19.postimg.org/3y2v6glsj/vlcsnap_2015_03_14_17h37m16s53.png[/img]&lt;/a&gt;\n\n[img]http://i.imgur.com/cWb6Z.gif[/img]\n\n[img]http://imgur.com/lvhU6.gif[/img]\n\n\n[img]http://i752.photobucket.com/albums/xx170/robbyrs/1dati.gif[/img]\n\n\n[spoiler]\nGeneral\nComplete name                            : Flash Gordon's Trip to Mars (1938)  01-15.ita.eng.sub.ita.MIRCrewFlash Gordon's Trip to Mars (1938) epi 2 - The Living Dead.avi\nFormat                                   : AVI\nFormat/Info                              : Audio Video Interleave\nFile size                                : 300 MiB\nDuration                                 : 19mn 41s\nOverall bit rate                         : 2 129 Kbps\nWriting application                      : VirtualDubMod 1.5.4.1 (build 2178/release)\nWriting library                          : VirtualDubMod build 2178/release\n\nVideo\nID                                       : 0\nFormat                                   : MPEG-4 Visual\nFormat profile                           : Advanced Simple@L5\nFormat settings, BVOP                    : 1\nFormat settings, QPel                    : No\nFormat settings, GMC                     : No warppoints\nFormat settings, Matrix                  : Custom\nCodec ID                                 : XVID\nCodec ID/Hint                            : XviD\nDuration                                 : 19mn 41s\nBit rate                                 : 1 736 Kbps\nWidth                                    : 512 pixels\nHeight                                   : 384 pixels\nDisplay aspect ratio                     : 4:3\nFrame rate                               : 25.000 fps\nColor space                              : YUV\nChroma subsampling                       : 4:2:0\nBit depth                                : 8 bits\nScan type                                : Progressive\nCompression mode                         : Lossy\nBits/(Pixel*Frame)                       : 0.353\nStream size                              : 245 MiB (82%)\nWriting library                          : XviD 1.2.0.dev47 (UTC 2006-11-01)\n\nAudio #1\nID                                       : 1\nFormat                                   : AC-3\nFormat/Info                              : Audio Coding 3\nMode extension                           : CM (complete main)\nCodec ID                                 : 2000\nDuration                                 : 19mn 41s\nBit rate mode                            : Constant\nBit rate                                 : 192 Kbps\nChannel(s)                               : 2 channels\nChannel positions                        : Front: L R\nSampling rate                            : 48.0 KHz\nBit depth                                : 16 bits\nCompression mode                         : Lossy\nStream size                              : 27.1 MiB (9%)\nAlignment                                : Split accross interleaves\nInterleave, duration                     : 96 ms (2.40 video frames)\nInterleave, preload duration             : 96 ms\nLanguage                                 : Italian\n\nAudio #2\nID                                       : 2\nFormat                                   : AC-3\nFormat/Info                              : Audio Coding 3\nMode extension                           : CM (complete main)\nCodec ID                                 : 2000\nDuration                                 : 19mn 41s\nBit rate mode                            : Constant\nBit rate                                 : 192 Kbps\nChannel(s)                               : 2 channels\nChannel positions                        : Front: L R\nSampling rate                            : 48.0 KHz\nBit depth                                : 16 bits\nCompression mode                         : Lossy\nStream size                              : 27.1 MiB (9%)\nAlignment                                : Split accross interleaves\nInterleave, duration                     : 96 ms (2.40 video frames)\nInterleave, preload duration             : 96 ms\nLanguage                                 : English\n\n\n\n\n\t\n[/spoiler]\n\n[/color][/b][/center]\n\n&amp;&amp;e4t67uk","torrent":{"xt":"urn:btih:755b6fe86e16558ce0b65ff68f0d51c14348bc0c","amp;dn":"Flash+Gordon%27s+Trip+to+Mars+%281938%29++DVDrip+XviD.ita.en","amp;tr":["udp%3A%2F%2Ftracker.openbittorrent.com%3A80","udp%3A%2F%2Fopen.demonii.com%3A1337","udp%3A%2F%2Ftracker.coppersurfer.tk%3A6969","udp%3A%2F%2Fexodus.desync.com%3A6969"],"infoHash":"755b6fe86e16558ce0b65ff68f0d51c14348bc0c","infoHashBuffer":{"type":"Buffer","data":[117,91,111,232,110,22,85,140,224,182,95,246,143,13,81,193,67,72,188,12]},"announce":[],"urlList":[]}}